<svg xmlns="http://www.w3.org/2000/svg" width="170" height="43.832" viewBox="0 0 170 43.832">
  <g id="logo" transform="translate(-173 -64)">
    <text id="tuyeto.q" transform="translate(227 95)" fill="#0d114f" font-size="26" font-family="Montserrat-ExtraBold, Montserrat" font-weight="800"><tspan x="0" y="0">tuyeto</tspan><tspan y="0" fill="#3485ff">.</tspan><tspan y="0">q</tspan></text>
    <g id="Icon" transform="translate(173 64)">
      <rect id="Retângulo_3" data-name="Retângulo 3" width="43.832" height="43.832" rx="7.89" fill="#3485ff"/>
      <g id="Grupo_1" data-name="Grupo 1">
        <path id="Caminho_1" data-name="Caminho 1" d="M33.258,32.413H29.349a.316.316,0,0,1-.312-.29c0-.052-.01-.1-.015-.15a4.255,4.255,0,0,0-4.463-3.549c-1.489.181-2.723,1.306-4.214,1.474a9.033,9.033,0,0,1-2.885-.135,8.446,8.446,0,0,1-2.508-.926,8.937,8.937,0,0,1-3.741-3.7,8.219,8.219,0,0,1-1.045-3,9.993,9.993,0,0,1-.011-2.5A9.029,9.029,0,0,1,11.4,15.956,8.859,8.859,0,0,1,15.062,12.5a8.631,8.631,0,0,1,2.268-.843,8.95,8.95,0,0,1,5.246.3,8.8,8.8,0,0,1,3.26,2.016c2.188,2.076,2.355,5.334,2.41,8.349a.444.444,0,0,1-.526.441,9.85,9.85,0,0,0-3.651-.053.521.521,0,0,1-.553-.659,4.428,4.428,0,0,0,.1-.445c.392-2.335-1.205-5-3.562-5.23a4.32,4.32,0,0,0-3.641,1.51,3.77,3.77,0,0,0-1.011,2.34A4.457,4.457,0,0,0,19.5,25.044a3.612,3.612,0,0,0,1.354-.2c1.425-.483,2.815-1.205,4.316-1.092,4.515.34,7.686,2.375,8.52,8.168A.432.432,0,0,1,33.258,32.413Z" fill="#fafafa"/>
      </g>
    </g>
  </g>
</svg>
